<?xml version="1.0" encoding="UTF-8" standalone="no"?>
<!-- Generator: Adobe Illustrator 27.5.0, SVG Export Plug-In . SVG Version: 6.00 Build 0)  -->

<svg
   version="1.1"
   id="Layer_1"
   x="0px"
   y="0px"
   viewBox="0 0 34.366653 33.753025"
   xml:space="preserve"
   width="34.366653"
   height="33.753025"
   xmlns="http://www.w3.org/2000/svg"
   xmlns:svg="http://www.w3.org/2000/svg"><defs
   id="defs425" />

<g
   id="g425"
   transform="translate(-109.05546,-52.819441)">
	
	<g
   id="g424">
		<g
   id="g16"
   style="fill:#000000;fill-opacity:1;stroke:#00b000;stroke-width:0.566929;stroke-dasharray:none;stroke-opacity:1">
			<path
   d="m 142.724,86.289 c -0.107,0 -0.215,-0.042 -0.296,-0.124 v 0 c -2.917,-2.91 -10.411,-9.233 -15.99,-12.922 -3.79,-2.506 -4.81,-4.857 -4.998,-6.388 -0.165,-1.346 0.239,-2.629 1.141,-3.611 0.721,-0.786 1.844,-1.204 3.133,-1.172 2.311,0.054 4.824,1.445 6.725,3.723 6.128,7.476 9.969,17.923 10.677,19.941 0.064,0.185 -0.006,0.386 -0.17,0.489 -0.07,0.043 -0.146,0.064 -0.222,0.064 z m 0.163,-0.584 h 0.009 z M 125.581,62.72 c -1.059,0 -1.951,0.34 -2.522,0.963 -0.77,0.84 -1.115,1.938 -0.974,3.093 0.172,1.395 1.128,3.556 4.712,5.925 5.192,3.434 12.038,9.139 15.357,12.292 -1.226,-3.299 -4.832,-12.214 -10.218,-18.785 -1.78,-2.133 -4.113,-3.438 -6.239,-3.487 -0.039,0 -0.077,-10e-4 -0.116,-10e-4 z"
   id="path1"
   style="fill:#000000;fill-opacity:1;stroke:#00b000;stroke-width:0.566929;stroke-dasharray:none;stroke-opacity:1" />
			<path
   d="m 114.412,65.425 c -0.938,0 -1.556,-0.163 -1.905,-0.495 -0.238,-0.226 -0.348,-0.526 -0.325,-0.892 0.012,-0.188 0.101,-0.461 0.462,-0.69 1.293,-0.818 5.474,-0.639 9.41,0.929 0.167,0.067 0.248,0.255 0.182,0.422 -0.019,0.047 -0.047,0.087 -0.082,0.12 0.038,0.06 0.058,0.132 0.05,0.208 -0.017,0.178 -0.182,0.31 -0.355,0.291 -0.03,-0.003 -3.151,-0.311 -6.048,0.018 -0.526,0.059 -0.986,0.089 -1.389,0.089 z m 0.775,-1.903 c -1.038,0 -1.821,0.139 -2.195,0.376 -0.047,0.03 -0.156,0.107 -0.161,0.18 -0.011,0.174 0.026,0.288 0.124,0.38 0.192,0.183 0.811,0.455 2.772,0.232 2.055,-0.233 4.212,-0.154 5.357,-0.082 -2.188,-0.771 -4.332,-1.086 -5.897,-1.086 z"
   id="path2"
   style="fill:#000000;fill-opacity:1;stroke:#00b000;stroke-width:0.566929;stroke-dasharray:none;stroke-opacity:1" />
			<path
   d="m 122.819,63.789 c -0.127,0 -0.248,-0.075 -0.3,-0.2 -0.86,-2.059 -3.555,-8.862 -2.124,-9.963 0.373,-0.288 0.689,-0.245 0.889,-0.159 0.883,0.382 1.255,2.44 1.543,5.412 0.17,1.762 0.654,4.086 0.659,4.11 0.036,0.175 -0.076,0.348 -0.252,0.384 -0.034,0.008 -0.067,0.009 -0.102,0.005 0.043,0.155 -0.036,0.321 -0.188,0.385 -0.041,0.018 -0.083,0.026 -0.125,0.026 z m -1.839,-9.736 c -0.037,0 -0.096,0.017 -0.188,0.087 -0.644,0.496 0.429,4.395 1.886,8.107 -0.159,-0.844 -0.387,-2.148 -0.49,-3.228 -0.302,-3.109 -0.689,-4.751 -1.162,-4.956 -0.009,-0.003 -0.024,-0.01 -0.046,-0.01 z"
   id="path3"
   style="fill:#000000;fill-opacity:1;stroke:#00b000;stroke-width:0.566929;stroke-dasharray:none;stroke-opacity:1" />
			<path
   d="m 121.811,64.846 c -0.066,0 -0.133,-0.02 -0.191,-0.061 -0.031,-0.023 -3.226,-2.295 -7.513,-2.751 -2.074,-0.236 -3.039,-0.784 -3.037,-1.723 0.001,-0.367 0.203,-0.68 0.569,-0.883 1.23,-0.68 4.471,-0.223 7.565,1.702 1.9,1.132 3.164,2.7 3.217,2.766 0.112,0.14 0.089,0.344 -0.051,0.456 -0.074,0.059 -0.164,0.082 -0.252,0.067 0.031,0.095 0.018,0.204 -0.045,0.291 -0.062,0.09 -0.162,0.136 -0.262,0.136 z m -8.684,-5.064 c -0.519,0 -0.923,0.077 -1.172,0.215 -0.234,0.129 -0.234,0.265 -0.234,0.315 -0.002,0.658 1.336,0.948 2.458,1.076 3.743,0.397 6.616,2.079 7.524,2.668 -0.427,-0.478 -1.468,-1.556 -2.836,-2.371 -2.194,-1.365 -4.366,-1.903 -5.74,-1.903 z"
   id="path4"
   style="fill:#000000;fill-opacity:1;stroke:#00b000;stroke-width:0.566929;stroke-dasharray:none;stroke-opacity:1" />
			<path
   d="m 118.511,61.391 c -0.082,0 -0.165,-0.031 -0.229,-0.094 -2.436,-2.402 -6.799,-6.165 -8.083,-6.093 -0.117,0.008 -0.149,0.05 -0.164,0.068 -0.033,0.044 -0.064,0.104 -0.038,0.222 0.226,1.005 3.393,2.95 5.336,3.94 0.16,0.081 0.224,0.277 0.143,0.437 -0.082,0.161 -0.278,0.224 -0.438,0.142 -0.542,-0.276 -5.31,-2.745 -5.675,-4.376 -0.063,-0.283 -0.009,-0.546 0.158,-0.762 0.103,-0.133 0.296,-0.296 0.635,-0.319 2.027,-0.117 7.917,5.622 8.583,6.279 0.128,0.126 0.129,0.332 0.003,0.459 -0.063,0.064 -0.147,0.097 -0.231,0.097 z"
   id="path5"
   style="fill:#000000;fill-opacity:1;stroke:#00b000;stroke-width:0.566929;stroke-dasharray:none;stroke-opacity:1" />
			<path
   d="m 122.319,64.146 c -0.106,0 -0.211,-0.052 -0.272,-0.148 -0.079,-0.121 -1.933,-2.989 -2.653,-4.722 -0.08,-0.193 -0.175,-0.429 -0.281,-0.695 -0.515,-1.29 -1.884,-4.716 -2.701,-4.827 -0.029,-0.006 -0.114,-0.016 -0.246,0.157 -0.718,0.948 1.556,4.936 3.399,7.463 0.105,0.145 0.074,0.348 -0.071,0.454 -0.144,0.104 -0.349,0.074 -0.454,-0.071 -0.789,-1.082 -4.66,-6.563 -3.392,-8.239 0.297,-0.392 0.628,-0.44 0.851,-0.409 1.103,0.148 2.151,2.559 3.218,5.229 0.105,0.263 0.198,0.496 0.277,0.687 0.698,1.679 2.58,4.589 2.599,4.618 0.098,0.15 0.055,0.352 -0.096,0.45 -0.056,0.036 -0.117,0.053 -0.178,0.053 z"
   id="path6"
   style="fill:#000000;fill-opacity:1;stroke:#00b000;stroke-width:0.566929;stroke-dasharray:none;stroke-opacity:1" />
			<path
   d="m 127.975,63.08 c -1.287,0.369 -2.344,1.319 -3.1,2.414 -0.043,0.061 -0.127,0.077 -0.188,0.034 -0.056,-0.039 -0.073,-0.113 -0.044,-0.172 0.667,-1.28 1.795,-2.37 3.248,-2.719 0.291,-0.064 0.379,0.395 0.084,0.443 z"
   id="path7"
   style="fill:#000000;fill-opacity:1;stroke:#00b000;stroke-width:0.566929;stroke-dasharray:none;stroke-opacity:1" />
			<path
   d="m 130.378,64.599 c -1.428,0.245 -2.657,1.265 -3.311,2.565 -0.075,0.147 -0.31,0.038 -0.244,-0.114 0.556,-1.496 1.892,-2.687 3.512,-2.898 0.295,-0.038 0.34,0.425 0.043,0.447 z"
   id="path8"
   style="fill:#000000;fill-opacity:1;stroke:#00b000;stroke-width:0.566929;stroke-dasharray:none;stroke-opacity:1" />
			<path
   d="m 132.294,66.558 c -1.005,0.337 -2.003,0.872 -2.708,1.691 -0.101,0.126 -0.305,-0.019 -0.22,-0.157 0.627,-1.001 1.686,-1.656 2.815,-1.97 0.12,-0.03 0.243,0.043 0.273,0.163 0.03,0.121 -0.043,0.241 -0.16,0.273 z"
   id="path9"
   style="fill:#000000;fill-opacity:1;stroke:#00b000;stroke-width:0.566929;stroke-dasharray:none;stroke-opacity:1" />
			<path
   d="m 134.821,69.91 c -0.955,0.073 -1.912,0.463 -2.624,1.131 -0.814,0.114 0.792,-1.157 1.042,-1.197 0.497,-0.224 1.012,-0.383 1.582,-0.384 0.124,0 0.225,0.1 0.225,0.224 0,0.127 -0.103,0.224 -0.225,0.226 z"
   id="path10"
   style="fill:#000000;fill-opacity:1;stroke:#00b000;stroke-width:0.566929;stroke-dasharray:none;stroke-opacity:1" />
			<path
   d="m 136.621,72.842 c -0.784,0.053 -1.602,0.267 -2.266,0.733 -0.755,0.046 0.629,-0.881 0.941,-0.943 0.429,-0.145 0.86,-0.254 1.331,-0.24 0.124,0.004 0.222,0.107 0.218,0.231 -0.003,0.122 -0.104,0.217 -0.224,0.219 z"
   id="path11"
   style="fill:#000000;fill-opacity:1;stroke:#00b000;stroke-width:0.566929;stroke-dasharray:none;stroke-opacity:1" />
			<path
   d="m 138.147,75.805 c -0.52,0.077 -1.036,0.348 -1.45,0.701 -0.058,0.048 -0.144,0.04 -0.193,-0.018 -0.206,-0.457 1.729,-1.626 1.857,-0.913 0.003,0.124 -0.096,0.22 -0.214,0.23 z"
   id="path12"
   style="fill:#000000;fill-opacity:1;stroke:#00b000;stroke-width:0.566929;stroke-dasharray:none;stroke-opacity:1" />
			<path
   d="m 131.335,65.541 c -0.669,0.169 -1.327,0.497 -1.887,0.922 -0.06,0.045 -0.145,0.033 -0.191,-0.027 -0.185,-0.431 2.118,-1.821 2.259,-1.149 0.019,0.122 -0.065,0.231 -0.181,0.254 z"
   id="path13"
   style="fill:#000000;fill-opacity:1;stroke:#00b000;stroke-width:0.566929;stroke-dasharray:none;stroke-opacity:1" />
			<path
   d="m 129.187,63.843 c -0.669,0.169 -1.327,0.497 -1.887,0.922 -0.06,0.045 -0.145,0.033 -0.191,-0.027 -0.185,-0.431 2.118,-1.821 2.26,-1.149 0.018,0.122 -0.065,0.231 -0.182,0.254 z"
   id="path14"
   style="fill:#000000;fill-opacity:1;stroke:#00b000;stroke-width:0.566929;stroke-dasharray:none;stroke-opacity:1" />
			<path
   d="m 133.928,68.928 c -0.669,0.169 -1.327,0.497 -1.887,0.922 -0.06,0.045 -0.145,0.033 -0.191,-0.027 -0.185,-0.431 2.118,-1.821 2.26,-1.149 0.018,0.121 -0.066,0.231 -0.182,0.254 z"
   id="path15"
   style="fill:#000000;fill-opacity:1;stroke:#00b000;stroke-width:0.566929;stroke-dasharray:none;stroke-opacity:1" />
			<path
   d="m 135.968,71.798 c -0.462,0.062 -0.941,0.213 -1.371,0.427 -0.131,0.069 -0.264,-0.112 -0.162,-0.216 0.402,-0.402 0.938,-0.645 1.52,-0.66 0.124,0.002 0.223,0.103 0.222,0.227 0,0.119 -0.094,0.211 -0.209,0.222 z"
   id="path16"
   style="fill:#000000;fill-opacity:1;stroke:#00b000;stroke-width:0.566929;stroke-dasharray:none;stroke-opacity:1" />
		</g>
		
		
		
		
		
		
		
		
		
		
		
		
		
		
		
		
		
		
		
		
		
		
		
		
		
		
	</g>
</g></svg>
