<?xml version="1.0" encoding="UTF-8" standalone="no"?>
<!-- Generator: Adobe Illustrator 27.5.0, SVG Export Plug-In . SVG Version: 6.00 Build 0)  -->

<svg
   version="1.1"
   id="Layer_1"
   x="0px"
   y="0px"
   viewBox="0 0 28.484423 49.745232"
   xml:space="preserve"
   width="28.484423"
   height="49.745232"
   xmlns="http://www.w3.org/2000/svg"
   xmlns:svg="http://www.w3.org/2000/svg"><defs
   id="defs425" />

<g
   id="g425"
   transform="translate(-12.379406,-13.165232)">
	
	<g
   id="g424">
		
		
		
		
		
		
		
		
		
		
		<g
   id="g264">
			<g
   id="g260"
   style="fill:#000000;fill-opacity:1;stroke:#00b000;stroke-width:0.566929;stroke-dasharray:none;stroke-opacity:1">
				<path
   d="m 28.032,44.499 c -1.903,0 -11.399,-0.078 -11.399,-1.602 0,-1.524 9.496,-1.602 11.399,-1.602 1.904,0 11.4,0.078 11.4,1.602 0,1.524 -9.496,1.602 -11.4,1.602 z m -10.66,-1.602 c 0.763,0.424 4.609,0.951 10.661,0.951 6.052,0 9.898,-0.527 10.661,-0.951 -0.763,-0.424 -4.609,-0.952 -10.661,-0.952 -6.052,10e-4 -9.898,0.528 -10.661,0.952 z m 21.434,0.085 h 0.008 z"
   id="path237"
   style="fill:#000000;fill-opacity:1;stroke:#00b000;stroke-width:0.566929;stroke-dasharray:none;stroke-opacity:1" />
				<path
   d="m 28.032,49.478 c -1.811,0 -10.846,-0.078 -10.846,-1.602 l -0.53,-4.966 c -0.019,-0.178 0.11,-0.338 0.289,-0.357 0.165,-0.016 0.338,0.11 0.357,0.289 l 0.532,5 c 0.319,0.377 4.153,0.986 10.198,0.986 6.044,0 9.878,-0.609 10.218,-1.03 l 0.533,-4.937 c 0.02,-0.178 0.184,-0.303 0.359,-0.287 0.178,0.02 0.307,0.181 0.287,0.359 l -0.553,4.979 c 0.003,1.488 -9.032,1.566 -10.844,1.566 z"
   id="path238"
   style="fill:#000000;fill-opacity:1;stroke:#00b000;stroke-width:0.566929;stroke-dasharray:none;stroke-opacity:1" />
				<path
   d="m 28.032,62.627 c -4.18,0 -9.038,-0.923 -9.038,-2.112 L 17.932,48.458 c -0.016,-0.179 0.116,-0.336 0.295,-0.352 0.182,-0.015 0.337,0.116 0.352,0.295 l 1.063,12.085 c 0.231,0.446 3.648,1.49 8.389,1.49 4.741,0 8.158,-1.044 8.396,-1.503 l 1.036,-12.03 c 0.015,-0.179 0.167,-0.315 0.352,-0.296 0.179,0.016 0.312,0.173 0.296,0.352 l -1.042,12.043 c 10e-4,1.162 -4.857,2.085 -9.037,2.085 z"
   id="path239"
   style="fill:#000000;fill-opacity:1;stroke:#00b000;stroke-width:0.566929;stroke-dasharray:none;stroke-opacity:1" />
				<path
   d="M 28.021,44.231 C 26.915,33.31 38.223,33.534 38.146,18.939 c -0.002,-0.242 0.393,-0.253 0.39,0.002 0.386,14.826 -10.806,14.64 -9.875,25.176 0.092,0.424 -0.577,0.56 -0.64,0.114 z"
   id="path240"
   style="fill:#000000;fill-opacity:1;stroke:#00b000;stroke-width:0.566929;stroke-dasharray:none;stroke-opacity:1" />
				<path
   d="m 32.722,33.152 c 3.07,-1.534 5.779,-4.003 7.232,-7.15 0.103,-0.217 0.45,-0.064 0.355,0.16 -0.632,1.684 -1.661,3.209 -2.926,4.488 -1.289,1.26 -2.735,2.341 -4.402,3.099 -0.163,0.074 -0.356,0.002 -0.43,-0.161 -0.077,-0.168 0.003,-0.365 0.171,-0.436 z"
   id="path241"
   style="fill:#000000;fill-opacity:1;stroke:#00b000;stroke-width:0.566929;stroke-dasharray:none;stroke-opacity:1" />
				<path
   d="m 28.257,43.264 c -0.022,0 -0.045,-0.002 -0.068,-0.007 -0.175,-0.038 -0.288,-0.209 -0.25,-0.385 0.022,-0.106 0.571,-2.606 2.751,-3.469 0.437,-0.173 0.969,-0.316 1.585,-0.482 2.263,-0.61 5.329,-1.438 7.455,-4.65 -1.551,-0.267 -6.774,-0.793 -9.804,3.51 -0.103,0.147 -0.306,0.182 -0.453,0.079 -0.147,-0.103 -0.182,-0.306 -0.079,-0.453 3.829,-5.44 10.872,-3.694 10.943,-3.675 0.099,0.025 0.181,0.097 0.219,0.191 0.039,0.095 0.031,0.203 -0.022,0.291 -2.265,3.763 -5.771,4.709 -8.091,5.335 -0.597,0.161 -1.112,0.3 -1.515,0.459 -1.851,0.732 -2.35,2.977 -2.355,2.999 -0.032,0.153 -0.167,0.257 -0.316,0.257 z"
   id="path242"
   style="fill:#000000;fill-opacity:1;stroke:#00b000;stroke-width:0.566929;stroke-dasharray:none;stroke-opacity:1" />
				<path
   d="m 29.346,40.321 c 1.723,-2.757 4.722,-4.41 7.826,-5.066 0.073,-0.016 0.145,0.03 0.161,0.103 0.016,0.072 -0.029,0.143 -0.1,0.16 -2.946,0.79 -5.825,2.438 -7.504,5.037 -0.147,0.247 -0.538,0.013 -0.383,-0.234 z"
   id="path243"
   style="fill:#000000;fill-opacity:1;stroke:#00b000;stroke-width:0.566929;stroke-dasharray:none;stroke-opacity:1" />
				<path
   d="m 22.206,36.507 c -1.278,-0.975 -2.954,-1.309 -4.548,-1.239 -0.075,0.005 -0.139,-0.052 -0.144,-0.126 -0.004,-0.069 0.049,-0.13 0.116,-0.142 1.698,-0.249 3.513,0.053 4.879,1.175 0.228,0.193 -0.088,0.541 -0.303,0.332 z"
   id="path244"
   style="fill:#000000;fill-opacity:1;stroke:#00b000;stroke-width:0.566929;stroke-dasharray:none;stroke-opacity:1" />
				<path
   d="m 27.857,44.238 c -0.145,0 -0.276,-0.097 -0.315,-0.244 -0.049,-0.191 -1.197,-4.843 -0.648,-18.563 0.007,-0.179 0.156,-0.3 0.338,-0.312 0.179,0.007 0.319,0.158 0.311,0.338 -0.544,13.592 0.617,18.328 0.629,18.375 0.044,0.174 -0.06,0.35 -0.234,0.395 -0.027,0.008 -0.055,0.011 -0.081,0.011 z"
   id="path245"
   style="fill:#000000;fill-opacity:1;stroke:#00b000;stroke-width:0.566929;stroke-dasharray:none;stroke-opacity:1" />
				<path
   d="m 27.623,25.515 c -2.044,0 -3.708,-1.525 -3.708,-3.399 0,-1.874 1.664,-3.4 3.708,-3.4 2.045,0 3.708,1.525 3.708,3.4 0,1.875 -1.663,3.399 -3.708,3.399 z m 0,-6.149 c -1.686,0 -3.058,1.233 -3.058,2.75 0,1.517 1.372,2.749 3.058,2.749 1.686,0 3.058,-1.233 3.058,-2.749 0,-1.516 -1.372,-2.75 -3.058,-2.75 z"
   id="path246"
   style="fill:#000000;fill-opacity:1;stroke:#00b000;stroke-width:0.566929;stroke-dasharray:none;stroke-opacity:1" />
				<path
   d="m 27.725,21.546 c -0.009,1.161 -0.075,2.31 -0.198,3.457 -0.013,0.123 -0.124,0.213 -0.247,0.2 -0.12,-0.013 -0.207,-0.118 -0.2,-0.237 0.069,-1.155 0.196,-2.309 0.378,-3.451 0.022,-0.166 0.282,-0.136 0.267,0.031 z"
   id="path247"
   style="fill:#000000;fill-opacity:1;stroke:#00b000;stroke-width:0.566929;stroke-dasharray:none;stroke-opacity:1" />
				<path
   d="m 29.921,20.1 c -0.145,0 -0.276,-0.097 -0.314,-0.244 -0.045,-0.173 0.059,-0.351 0.233,-0.396 0.033,-0.009 3.346,-0.896 3.459,-3.021 0.012,-0.326 -0.089,-0.586 -0.278,-0.711 -0.228,-0.15 -0.599,-0.116 -1.046,0.096 -0.107,0.049 -0.232,0.039 -0.328,-0.03 -0.096,-0.068 -0.147,-0.184 -0.134,-0.301 0.008,-0.083 0.06,-0.836 -0.739,-1.019 -0.842,-0.19 -1.244,0.646 -1.261,0.681 -0.055,0.115 -0.165,0.17 -0.298,0.187 -0.127,-0.002 -0.243,-0.077 -0.294,-0.193 -0.021,-0.05 -0.552,-1.22 -1.587,-1.024 -1.021,0.199 -1.014,1.473 -1.014,1.527 0.002,0.124 -0.068,0.24 -0.18,0.295 -0.113,0.055 -0.247,0.043 -0.345,-0.034 -0.017,-0.014 -1.658,-1.268 -2.494,-0.328 -0.378,0.423 -0.477,1.04 -0.265,1.651 0.332,0.954 1.327,1.663 2.663,1.898 0.177,0.031 0.295,0.2 0.264,0.376 -0.031,0.176 -0.199,0.293 -0.376,0.264 -1.572,-0.277 -2.755,-1.146 -3.165,-2.326 -0.291,-0.836 -0.144,-1.694 0.393,-2.296 0.898,-1.005 2.217,-0.463 2.912,-0.061 0.137,-0.648 0.542,-1.422 1.481,-1.606 0.938,-0.188 1.637,0.381 2.029,0.922 0.346,-0.39 0.92,-0.74 1.68,-0.569 0.797,0.183 1.118,0.745 1.214,1.227 0.6,-0.174 1,-0.044 1.245,0.117 0.383,0.253 0.59,0.72 0.569,1.283 -0.139,2.606 -3.79,3.581 -3.945,3.621 -0.025,0.01 -0.052,0.014 -0.079,0.014 z"
   id="path248"
   style="fill:#000000;fill-opacity:1;stroke:#00b000;stroke-width:0.566929;stroke-dasharray:none;stroke-opacity:1" />
				<path
   d="m 28.867,19.298 c -0.072,0 -0.142,-0.034 -0.185,-0.098 -0.07,-0.103 -0.044,-0.242 0.059,-0.313 1.654,-1.133 2.787,-3.371 2.798,-3.394 0.056,-0.112 0.191,-0.156 0.302,-0.101 0.111,0.056 0.156,0.19 0.101,0.302 -0.048,0.096 -1.195,2.364 -2.947,3.564 -0.039,0.027 -0.084,0.04 -0.128,0.04 z"
   id="path249"
   style="fill:#000000;fill-opacity:1;stroke:#00b000;stroke-width:0.566929;stroke-dasharray:none;stroke-opacity:1" />
				<path
   d="m 28.357,19.106 c -0.037,0 -0.074,-0.009 -0.109,-0.028 -0.108,-0.06 -0.148,-0.197 -0.088,-0.306 0.974,-1.767 0.835,-3.716 0.834,-3.735 -0.01,-0.124 0.083,-0.232 0.206,-0.242 0.106,-0.017 0.232,0.082 0.242,0.207 0.007,0.084 0.153,2.1 -0.888,3.988 -0.041,0.074 -0.118,0.116 -0.197,0.116 z"
   id="path250"
   style="fill:#000000;fill-opacity:1;stroke:#00b000;stroke-width:0.566929;stroke-dasharray:none;stroke-opacity:1" />
				<path
   d="m 27.144,19.17 c -0.121,0 -0.221,-0.096 -0.225,-0.217 -0.061,-1.694 -1.096,-3.149 -1.107,-3.163 -0.072,-0.101 -0.05,-0.242 0.051,-0.314 0.102,-0.072 0.241,-0.05 0.314,0.05 0.046,0.063 1.126,1.577 1.191,3.411 0.005,0.124 -0.092,0.228 -0.217,0.233 -0.001,0 -0.004,0 -0.007,0 z"
   id="path251"
   style="fill:#000000;fill-opacity:1;stroke:#00b000;stroke-width:0.566929;stroke-dasharray:none;stroke-opacity:1" />
				<path
   d="m 27.41,41.121 c -0.168,0 -0.31,-0.129 -0.324,-0.299 -0.015,-0.193 -0.339,-4.739 1.867,-8.595 -0.081,-1.722 -0.167,-4.505 2.271,-5.701 0.522,-0.256 1.042,-0.468 1.544,-0.672 1.636,-0.667 3.048,-1.242 3.563,-3 0.045,-0.154 0.198,-0.257 0.354,-0.231 0.159,0.02 0.279,0.153 0.283,0.313 0.002,0.079 0.129,7.929 -7.628,9.935 -1.909,3.614 -1.609,7.855 -1.606,7.899 0.014,0.179 -0.12,0.335 -0.299,0.349 -0.008,0.002 -0.017,0.002 -0.025,0.002 z m 8.757,-16.575 c -0.792,0.948 -1.949,1.419 -3.153,1.91 -0.492,0.2 -1.001,0.408 -1.503,0.654 -2.031,0.996 -1.987,3.365 -1.911,5.016 4.81,-1.442 6.179,-5.359 6.567,-7.58 z"
   id="path252"
   style="fill:#000000;fill-opacity:1;stroke:#00b000;stroke-width:0.566929;stroke-dasharray:none;stroke-opacity:1" />
				<path
   d="m 29.24,32.062 c 0.67,-1.939 2.305,-3.234 4.043,-4.172 0.54,-0.345 1.092,-0.661 1.415,-1.183 0.039,-0.063 0.122,-0.083 0.186,-0.044 0.061,0.037 0.079,0.119 0.047,0.181 -0.7,1.165 -2.034,1.633 -3.035,2.44 -1.004,0.724 -1.754,1.803 -2.231,2.928 -0.089,0.283 -0.535,0.129 -0.425,-0.15 z"
   id="path253"
   style="fill:#000000;fill-opacity:1;stroke:#00b000;stroke-width:0.566929;stroke-dasharray:none;stroke-opacity:1" />
				<path
   d="m 27.198,44.504 c -0.175,0 -0.32,-0.14 -0.325,-0.315 -0.002,-0.062 -0.239,-6.082 -5.919,-14.706 -0.678,1.584 -3.57,2.914 -5.317,3.28 -1.129,0.235 -2.119,-0.063 -2.652,-0.802 -0.383,-0.531 -0.43,-1.191 -0.121,-1.722 0.628,-1.082 3.405,-2.859 5.278,-3.127 1.982,-0.282 2.919,1.349 2.958,1.419 6.18,9.098 6.417,15.376 6.424,15.639 0.005,0.179 -0.136,0.329 -0.315,0.333 -0.006,10e-4 -0.009,10e-4 -0.011,10e-4 z M 18.586,27.73 c -0.112,0 -0.23,0.008 -0.353,0.026 -1.752,0.25 -4.314,1.959 -4.807,2.81 -0.181,0.311 -0.149,0.69 0.085,1.015 0.379,0.525 1.124,0.729 1.992,0.547 2.046,-0.429 5.023,-2.031 4.945,-3.365 -0.001,-0.013 -0.001,-0.026 0,-0.04 -0.225,-0.313 -0.83,-0.993 -1.862,-0.993 z"
   id="path254"
   style="fill:#000000;fill-opacity:1;stroke:#00b000;stroke-width:0.566929;stroke-dasharray:none;stroke-opacity:1" />
				<path
   d="m 14.979,29.1 c -0.004,0 -0.009,0 -0.014,0 -0.048,-0.002 -1.174,-0.06 -1.574,-0.86 -0.408,-0.815 0.112,-1.805 0.837,-2.361 l 0.07,-0.054 c 0.523,-0.405 1.748,-1.354 2.924,-0.907 1.243,0.472 1.394,2.329 1.4,2.408 0.013,0.179 -0.121,0.335 -0.3,0.348 -0.179,0.024 -0.335,-0.121 -0.349,-0.299 -0.032,-0.422 -0.272,-1.579 -0.983,-1.849 -0.837,-0.319 -1.859,0.475 -2.295,0.813 l -0.073,0.056 c -0.501,0.384 -0.899,1.059 -0.652,1.554 0.191,0.381 0.817,0.493 1.021,0.501 0.179,0.008 0.318,0.16 0.311,0.339 -0.006,0.174 -0.149,0.311 -0.323,0.311 z"
   id="path255"
   style="fill:#000000;fill-opacity:1;stroke:#00b000;stroke-width:0.566929;stroke-dasharray:none;stroke-opacity:1" />
				<path
   d="m 20.448,28.483 c -0.089,0 -0.177,-0.036 -0.241,-0.107 -0.12,-0.132 -0.11,-0.337 0.022,-0.458 0.039,-0.036 0.953,-0.89 0.915,-2.432 -0.017,-0.666 -0.211,-1.148 -0.56,-1.396 -0.292,-0.206 -0.628,-0.204 -0.844,-0.133 -0.834,0.272 -1.289,1.466 -1.308,2.505 -0.003,0.179 -0.17,0.352 -0.331,0.319 -0.179,-0.003 -0.322,-0.151 -0.319,-0.331 0.022,-1.23 0.581,-2.729 1.756,-3.112 0.466,-0.152 1.011,-0.069 1.42,0.22 0.366,0.259 0.807,0.8 0.834,1.911 0.046,1.852 -1.08,2.887 -1.128,2.931 -0.061,0.055 -0.138,0.083 -0.216,0.083 z"
   id="path256"
   style="fill:#000000;fill-opacity:1;stroke:#00b000;stroke-width:0.566929;stroke-dasharray:none;stroke-opacity:1" />
				<path
   d="m 21.49,24.972 c -0.063,0 -0.128,-0.019 -0.185,-0.058 -0.147,-0.102 -0.184,-0.303 -0.083,-0.45 v 0 c 0.025,-0.039 0.62,-0.959 0.065,-2.72 -0.194,-0.617 -0.503,-0.981 -0.915,-1.082 -0.473,-0.115 -0.938,0.139 -1.014,0.214 -0.53,0.53 -0.326,1.513 0.533,2.564 0.113,0.139 0.093,0.344 -0.046,0.458 -0.14,0.112 -0.344,0.092 -0.458,-0.046 -1.3,-1.592 -1.105,-2.819 -0.489,-3.435 0.198,-0.198 0.877,-0.571 1.628,-0.386 0.446,0.109 1.047,0.461 1.38,1.518 0.657,2.085 -0.116,3.235 -0.149,3.283 -0.063,0.092 -0.164,0.14 -0.267,0.14 z"
   id="path257"
   style="fill:#000000;fill-opacity:1;stroke:#00b000;stroke-width:0.566929;stroke-dasharray:none;stroke-opacity:1" />
				<path
   d="m 16.49,25.419 c -0.153,0 -0.29,-0.109 -0.319,-0.266 -0.189,-1.008 -0.035,-1.812 0.458,-2.388 0.77,-0.899 2.074,-0.878 2.126,-0.869 0.179,0.005 0.319,0.155 0.314,0.333 -0.005,0.178 -0.151,0.318 -0.333,0.316 -0.02,0.005 -1.052,-0.017 -1.616,0.646 -0.356,0.419 -0.462,1.039 -0.311,1.843 0.033,0.176 -0.083,0.346 -0.26,0.379 -0.02,0.004 -0.039,0.006 -0.059,0.006 z"
   id="path258"
   style="fill:#000000;fill-opacity:1;stroke:#00b000;stroke-width:0.566929;stroke-dasharray:none;stroke-opacity:1" />
				<path
   d="M 25.36,37.962 C 24.689,36.087 24.91,34.191 24.715,32.281 24.62,30.422 24.3,28.588 23.652,26.852 c -0.039,-0.1 0.01,-0.214 0.111,-0.253 0.095,-0.037 0.203,0.009 0.247,0.099 1.752,3.418 1.074,7.443 1.951,11.017 0.174,0.39 -0.45,0.651 -0.601,0.247 z"
   id="path259"
   style="fill:#000000;fill-opacity:1;stroke:#00b000;stroke-width:0.566929;stroke-dasharray:none;stroke-opacity:1" />
				<path
   d="m 26.899,44.27 c -0.155,0 -0.292,-0.111 -0.319,-0.269 -0.598,-3.386 -1.334,-4.179 -3.115,-6.096 -0.227,-0.244 -0.469,-0.505 -0.728,-0.79 -0.002,0 -0.004,10e-4 -0.006,0.002 -2.151,0.887 -3.852,1.587 -6.142,-0.944 -1.019,-1.128 -2.564,-1.201 -2.58,-1.202 -0.14,-0.005 -0.261,-0.101 -0.3,-0.235 -0.039,-0.135 0.013,-0.279 0.129,-0.358 0.11,-0.075 2.716,-1.827 5.062,-1.391 2.42,0.449 3.305,2.042 4.086,3.449 0.321,0.346 0.652,0.702 0.954,1.027 1.818,1.957 2.647,2.85 3.278,6.425 0.031,0.177 -0.087,0.346 -0.263,0.376 -0.018,0.004 -0.037,0.006 -0.056,0.006 z M 14.957,34.48 c 0.625,0.171 1.452,0.525 2.114,1.258 1.933,2.137 3.278,1.655 5.259,0.842 -0.747,-1.321 -1.546,-2.582 -3.549,-2.954 -1.374,-0.255 -2.925,0.388 -3.824,0.854 z"
   id="path260"
   style="fill:#000000;fill-opacity:1;stroke:#00b000;stroke-width:0.566929;stroke-dasharray:none;stroke-opacity:1" />
			</g>
			
			
			
			
		</g>
		
		
		
		
		
		
		
		
		
		
		
		
		
		
		
		
	</g>
</g></svg>
