<?xml version="1.0" encoding="UTF-8" standalone="no"?>
<!-- Generator: Adobe Illustrator 27.5.0, SVG Export Plug-In . SVG Version: 6.00 Build 0)  -->

<svg
   version="1.1"
   id="Layer_1"
   x="0px"
   y="0px"
   viewBox="0 0 28.720621 48.973621"
   xml:space="preserve"
   width="28.720621"
   height="48.973621"
   xmlns="http://www.w3.org/2000/svg"
   xmlns:svg="http://www.w3.org/2000/svg"><defs
   id="defs425" />

<g
   id="g425"
   transform="translate(-158.12319,-136.92919)">
	
	<g
   id="layer2"><g
     id="g199"
     style="fill:#007400;fill-opacity:1;stroke:#00b000;stroke-width:0.623622;stroke-dasharray:none;stroke-opacity:1">
			<path
   d="m 172.484,178.461 c -7.746,0 -14.049,-6.303 -14.049,-14.049 0,-7.746 6.303,-14.048 14.049,-14.048 7.746,0 14.048,6.302 14.048,14.048 0,7.747 -6.301,14.049 -14.048,14.049 z m 0,-27.446 c -7.388,0 -13.398,6.01 -13.398,13.397 0,7.387 6.011,13.398 13.398,13.398 7.387,0 13.398,-6.011 13.398,-13.398 0,-7.387 -6.01,-13.397 -13.398,-13.397 z"
   id="path190"
   style="fill:#007400;fill-opacity:1;stroke:#00b000;stroke-width:0.623622;stroke-dasharray:none;stroke-opacity:1" />
			<path
   d="m 172.484,168.27 c -2.127,0 -3.857,-1.73 -3.857,-3.857 0,-2.127 1.73,-3.857 3.857,-3.857 2.126,0 3.856,1.73 3.856,3.857 0,2.127 -1.73,3.857 -3.856,3.857 z m 0,-7.064 c -1.769,0 -3.207,1.438 -3.207,3.207 0,1.769 1.438,3.207 3.207,3.207 1.768,0 3.206,-1.438 3.206,-3.207 0,-1.769 -1.438,-3.207 -3.206,-3.207 z"
   id="path191"
   style="fill:#007400;fill-opacity:1;stroke:#00b000;stroke-width:0.623622;stroke-dasharray:none;stroke-opacity:1" />
			<path
   d="m 172.484,171.794 c -4.07,0 -7.383,-3.312 -7.383,-7.382 0,-4.07 3.313,-7.382 7.383,-7.382 4.07,0 7.382,3.311 7.382,7.382 0,4.071 -3.311,7.382 -7.382,7.382 z m 0,-14.113 c -3.712,0 -6.732,3.02 -6.732,6.731 0,3.711 3.021,6.731 6.732,6.731 3.711,0 6.731,-3.02 6.731,-6.731 0,-3.711 -3.019,-6.731 -6.731,-6.731 z"
   id="path192"
   style="fill:#007400;fill-opacity:1;stroke:#00b000;stroke-width:0.623622;stroke-dasharray:none;stroke-opacity:1" />
			<path
   d="m 172.484,175.339 c -6.025,0 -10.927,-4.901 -10.927,-10.927 0,-6.024 4.901,-10.926 10.927,-10.926 6.024,0 10.926,4.901 10.926,10.926 0,6.026 -4.901,10.927 -10.926,10.927 z m 0,-21.202 c -5.667,0 -10.276,4.609 -10.276,10.275 0,5.667 4.609,10.276 10.276,10.276 5.666,0 10.275,-4.609 10.275,-10.276 0.001,-5.665 -4.609,-10.275 -10.275,-10.275 z"
   id="path193"
   style="fill:#007400;fill-opacity:1;stroke:#00b000;stroke-width:0.623622;stroke-dasharray:none;stroke-opacity:1" />
			<path
   d="m 184.19,185.591 h -9.183 c -9.138,0 -16.571,-7.434 -16.571,-16.57 v -4.608 c 0,-0.18 0.145,-0.325 0.325,-0.325 0.18,0 0.325,0.145 0.325,0.325 v 4.608 c 0,8.778 7.142,15.92 15.921,15.92 h 9.183 c 0.063,-0.043 0.224,-0.416 0.241,-1.1 0.02,-0.813 -0.165,-1.348 -0.274,-1.419 l -9.149,0.008 c -5.292,0 -10.105,-3.132 -12.26,-7.979 -0.073,-0.164 0.001,-0.355 0.165,-0.429 0.164,-0.074 0.356,0.001 0.429,0.165 2.052,4.612 6.631,7.592 11.666,7.592 h 9.183 c 0.658,0 0.893,1.004 0.893,1.943 0,0.441 -0.056,0.855 -0.156,1.163 -0.201,0.614 -0.549,0.706 -0.738,0.706 z"
   id="path194"
   style="fill:#007400;fill-opacity:1;stroke:#00b000;stroke-width:0.623622;stroke-dasharray:none;stroke-opacity:1" />
			<path
   d="m 179.683,153.029 c -0.18,0 -0.325,-0.145 -0.325,-0.325 v -9.569 c 0,-0.18 0.146,-0.325 0.325,-0.325 0.18,0 0.325,0.146 0.325,0.325 v 9.569 c 0,0.179 -0.146,0.325 -0.325,0.325 z"
   id="path195"
   style="fill:#007400;fill-opacity:1;stroke:#00b000;stroke-width:0.623622;stroke-dasharray:none;stroke-opacity:1" />
			<path
   d="m 182.844,155.624 c -0.18,0 -0.325,-0.145 -0.325,-0.325 v -12.165 c 0,-0.18 0.146,-0.325 0.325,-0.325 0.18,0 0.325,0.146 0.325,0.325 v 12.165 c 0,0.18 -0.145,0.325 -0.325,0.325 z"
   id="path196"
   style="fill:#007400;fill-opacity:1;stroke:#00b000;stroke-width:0.623622;stroke-dasharray:none;stroke-opacity:1" />
			<path
   d="m 179.53,142.163 c -0.027,0 -0.056,-0.004 -0.084,-0.012 -0.174,-0.046 -0.276,-0.225 -0.23,-0.397 l 1.145,-4.272 c 0.038,-0.143 0.166,-0.241 0.314,-0.241 h 1.148 c 0.146,0 0.275,0.099 0.313,0.24 l 1.156,4.272 c 0.047,0.173 -0.056,0.352 -0.229,0.398 -0.171,0.049 -0.352,-0.055 -0.398,-0.229 l -1.092,-4.032 h -0.65 l -1.08,4.031 c -0.037,0.146 -0.169,0.242 -0.313,0.242 z"
   id="path197"
   style="fill:#007400;fill-opacity:1;stroke:#00b000;stroke-width:0.623622;stroke-dasharray:none;stroke-opacity:1" />
			<path
   d="m 182.957,143.312 h -3.405 c -0.357,0 -0.648,-0.291 -0.648,-0.648 v -0.379 c 0,-0.357 0.291,-0.648 0.648,-0.648 h 3.405 c 0.358,0 0.65,0.291 0.65,0.648 v 0.379 c 0,0.357 -0.292,0.648 -0.65,0.648 z m -3.728,-0.648 h 0.325 v 0 z m 0.325,-0.002 h 3.403 l -0.001,-0.377 -3.404,0.002 z"
   id="path198"
   style="fill:#007400;fill-opacity:1;stroke:#00b000;stroke-width:0.623622;stroke-dasharray:none;stroke-opacity:1" />
			<path
   d="m 182.101,137.897 h -1.705 c -0.18,0 -0.325,-0.146 -0.325,-0.325 0,-0.18 0.146,-0.325 0.325,-0.325 h 1.705 c 0.18,0 0.325,0.146 0.325,0.325 0,0.179 -0.146,0.325 -0.325,0.325 z"
   id="path199"
   style="fill:#007400;fill-opacity:1;stroke:#00b000;stroke-width:0.623622;stroke-dasharray:none;stroke-opacity:1" />
		</g></g>
</g></svg>
