<?xml version="1.0" encoding="UTF-8" standalone="no"?>
<!-- Generator: Adobe Illustrator 27.5.0, SVG Export Plug-In . SVG Version: 6.00 Build 0)  -->

<svg
   version="1.1"
   id="Layer_1"
   x="0px"
   y="0px"
   viewBox="0 0 17.856724 60.31012"
   xml:space="preserve"
   width="17.856724"
   height="60.31012"
   xmlns="http://www.w3.org/2000/svg"
   xmlns:svg="http://www.w3.org/2000/svg"><defs
   id="defs425" />

<g
   id="g425"
   transform="translate(-11.750802,-125.37171)">
	
	<g
   id="layer1"><g
     id="g102"
     style="fill:#007400;fill-opacity:1;stroke:#00ff00;stroke-width:0.245669;stroke-dasharray:none;stroke-opacity:1">
			<g
   id="g79"
   style="fill:#007400;fill-opacity:1;stroke:#00ff00;stroke-width:0.245669;stroke-dasharray:none;stroke-opacity:1">
				<path
   d="m 18.366,152.185 c -0.749,0 -1.475,-0.26 -2.083,-0.752 -0.721,-0.585 -1.188,-1.427 -1.317,-2.371 -0.267,-1.958 1.022,-3.756 2.872,-4.009 0.899,-0.121 1.796,0.135 2.523,0.723 0.721,0.585 1.189,1.427 1.317,2.371 0.129,0.944 -0.096,1.881 -0.635,2.637 -0.542,0.762 -1.337,1.249 -2.237,1.372 -0.147,0.019 -0.294,0.029 -0.44,0.029 z m -0.089,-6.512 c -0.117,0 -0.233,0.008 -0.351,0.025 -0.721,0.098 -1.358,0.49 -1.796,1.104 -0.442,0.62 -0.626,1.392 -0.52,2.172 0.106,0.78 0.491,1.474 1.082,1.953 0.586,0.476 1.306,0.688 2.026,0.584 0.721,-0.098 1.358,-0.49 1.796,-1.105 0.442,-0.62 0.626,-1.392 0.521,-2.172 -0.106,-0.78 -0.491,-1.474 -1.083,-1.953 -0.491,-0.398 -1.075,-0.608 -1.675,-0.608 z"
   id="path78"
   style="fill:#007400;fill-opacity:1;stroke:#00ff00;stroke-width:0.245669;stroke-dasharray:none;stroke-opacity:1" />
				<path
   d="m 18.338,150.04 c -0.302,0 -0.595,-0.105 -0.84,-0.304 -0.289,-0.233 -0.476,-0.57 -0.527,-0.948 -0.107,-0.785 0.412,-1.506 1.157,-1.607 0.359,-0.055 0.725,0.053 1.018,0.291 0.289,0.233 0.476,0.57 0.528,0.948 0.107,0.785 -0.413,1.506 -1.158,1.607 -0.06,0.01 -0.119,0.013 -0.178,0.013 z m -0.033,-2.421 c -0.039,0 -0.077,0.003 -0.116,0.008 -0.499,0.068 -0.845,0.563 -0.771,1.102 0.036,0.264 0.165,0.498 0.365,0.659 0.195,0.159 0.434,0.226 0.673,0.195 0.499,-0.068 0.846,-0.563 0.772,-1.102 -0.036,-0.264 -0.166,-0.498 -0.365,-0.659 -0.164,-0.133 -0.359,-0.203 -0.558,-0.203 z"
   id="path79"
   style="fill:#007400;fill-opacity:1;stroke:#00ff00;stroke-width:0.245669;stroke-dasharray:none;stroke-opacity:1" />
			</g>
			<path
   d="m 15.249,148.324 c -0.128,0 -0.25,-0.077 -0.301,-0.203 -6.253,-15.459 0.156,-22.249 0.432,-22.53 0.113,-0.114 0.292,-0.129 0.422,-0.036 8.818,6.348 5.537,21.382 5.502,21.532 -0.04,0.176 -0.213,0.28 -0.389,0.246 -0.175,-0.04 -0.285,-0.214 -0.245,-0.389 0.033,-0.146 3.159,-14.487 -5.008,-20.685 -1.002,1.255 -5.594,8.062 -0.111,21.617 0.067,0.167 -0.013,0.356 -0.179,0.424 -0.041,0.016 -0.082,0.024 -0.123,0.024 z"
   id="path80"
   style="fill:#007400;fill-opacity:1;stroke:#00ff00;stroke-width:0.245669;stroke-dasharray:none;stroke-opacity:1" />
			<path
   d="m 17.882,145.701 c -0.163,0 -0.304,-0.122 -0.322,-0.288 l -2.195,-19.247 c -0.021,-0.179 0.107,-0.34 0.286,-0.36 0.175,-0.012 0.34,0.108 0.359,0.286 l 2.195,19.247 c 0.021,0.179 -0.107,0.34 -0.286,0.36 -0.013,10e-4 -0.025,0.002 -0.037,0.002 z"
   id="path81"
   style="fill:#007400;fill-opacity:1;stroke:#00ff00;stroke-width:0.245669;stroke-dasharray:none;stroke-opacity:1" />
			<g
   id="g91"
   style="fill:#007400;fill-opacity:1;stroke:#00ff00;stroke-width:0.245669;stroke-dasharray:none;stroke-opacity:1">
				<path
   d="m 22.978,155.243 c -0.127,0 -0.248,-0.075 -0.3,-0.201 l -1.894,-4.572 c -0.069,-0.165 0.01,-0.355 0.176,-0.424 0.167,-0.072 0.356,0.009 0.425,0.176 l 1.894,4.572 c 0.069,0.165 -0.01,0.355 -0.176,0.424 -0.041,0.017 -0.083,0.025 -0.125,0.025 z"
   id="path82"
   style="fill:#007400;fill-opacity:1;stroke:#00ff00;stroke-width:0.245669;stroke-dasharray:none;stroke-opacity:1" />
				<path
   d="m 21.31,155.989 c -0.128,0 -0.249,-0.075 -0.3,-0.201 l -1.593,-3.848 c -0.069,-0.165 0.01,-0.355 0.176,-0.424 0.167,-0.072 0.356,0.009 0.425,0.176 l 1.593,3.848 c 0.069,0.165 -0.01,0.355 -0.176,0.424 -0.041,0.017 -0.083,0.025 -0.125,0.025 z"
   id="path83"
   style="fill:#007400;fill-opacity:1;stroke:#00ff00;stroke-width:0.245669;stroke-dasharray:none;stroke-opacity:1" />
				<path
   d="m 23.643,163.388 c -0.13,0 -0.253,-0.079 -0.303,-0.208 l -2.733,-7.078 c -0.062,-0.161 0.013,-0.343 0.17,-0.414 l 2.477,-1.108 c 0.082,-0.035 0.173,-0.039 0.255,-0.004 0.082,0.033 0.147,0.098 0.18,0.18 l 2.854,7.14 c 0.066,0.167 -0.015,0.356 -0.181,0.423 -0.167,0.066 -0.356,-0.015 -0.422,-0.181 l -2.729,-6.826 -1.887,0.845 2.622,6.79 c 0.065,0.168 -0.018,0.355 -0.186,0.42 -0.039,0.014 -0.078,0.021 -0.117,0.021 z"
   id="path84"
   style="fill:#007400;fill-opacity:1;stroke:#00ff00;stroke-width:0.245669;stroke-dasharray:none;stroke-opacity:1" />
				<path
   d="m 27.093,184.497 c -0.12,0 -0.244,-0.015 -0.371,-0.045 -2.109,-0.505 -4.192,-1.646 -3.649,-6.273 l 0.095,-0.802 c 0.518,-4.36 0.965,-8.126 -0.215,-13.9 -0.032,-0.154 0.052,-0.31 0.198,-0.367 l 3.464,-1.379 c 0.15,-0.059 0.321,0 0.401,0.139 0.09,0.155 2.2,3.883 2.432,11.88 0.179,6.146 -0.295,9.46 -1.49,10.432 -0.259,0.209 -0.549,0.315 -0.865,0.315 z m -3.45,-20.883 c 1.134,5.727 0.687,9.491 0.17,13.84 l -0.095,0.802 c -0.548,4.678 1.861,5.254 3.155,5.563 0.261,0.064 0.478,0.019 0.675,-0.143 0.997,-0.811 1.418,-4.144 1.251,-9.907 -0.194,-6.683 -1.757,-10.374 -2.218,-11.325 z"
   id="path85"
   style="fill:#007400;fill-opacity:1;stroke:#00ff00;stroke-width:0.245669;stroke-dasharray:none;stroke-opacity:1" />
				<path
   d="m 25.85,162.592 c 1.282,3.426 1.952,7.063 1.989,10.714 0,0.075 -0.06,0.135 -0.135,0.135 -0.072,0 -0.131,-0.058 -0.135,-0.128 -0.206,-3.592 -0.928,-7.174 -2.137,-10.555 -0.114,-0.269 0.315,-0.444 0.418,-0.166 z"
   id="path86"
   style="fill:#007400;fill-opacity:1;stroke:#00ff00;stroke-width:0.245669;stroke-dasharray:none;stroke-opacity:1" />
				<path
   d="m 21.489,157.19 c 0.199,-0.099 1.684,-0.757 1.348,-0.174 -0.37,0.249 -0.761,0.445 -1.175,0.589 -0.118,0.041 -0.246,-0.021 -0.287,-0.139 -0.038,-0.108 0.013,-0.226 0.114,-0.276 z"
   id="path87"
   style="fill:#007400;fill-opacity:1;stroke:#00ff00;stroke-width:0.245669;stroke-dasharray:none;stroke-opacity:1" />
				<path
   d="m 21.902,158.29 c 0.199,-0.099 1.684,-0.757 1.348,-0.174 -0.37,0.249 -0.761,0.445 -1.175,0.589 -0.118,0.041 -0.246,-0.021 -0.287,-0.139 -0.037,-0.108 0.014,-0.226 0.114,-0.276 z"
   id="path88"
   style="fill:#007400;fill-opacity:1;stroke:#00ff00;stroke-width:0.245669;stroke-dasharray:none;stroke-opacity:1" />
				<path
   d="m 22.316,159.39 c 0.199,-0.099 1.684,-0.757 1.348,-0.174 -0.37,0.249 -0.761,0.445 -1.175,0.589 -0.118,0.041 -0.246,-0.021 -0.287,-0.139 -0.037,-0.108 0.013,-0.226 0.114,-0.276 z"
   id="path89"
   style="fill:#007400;fill-opacity:1;stroke:#00ff00;stroke-width:0.245669;stroke-dasharray:none;stroke-opacity:1" />
				<path
   d="m 22.73,160.49 c 0.199,-0.099 1.684,-0.757 1.348,-0.174 -0.37,0.249 -0.761,0.445 -1.175,0.589 -0.118,0.041 -0.246,-0.021 -0.287,-0.139 -0.037,-0.108 0.013,-0.226 0.114,-0.276 z"
   id="path90"
   style="fill:#007400;fill-opacity:1;stroke:#00ff00;stroke-width:0.245669;stroke-dasharray:none;stroke-opacity:1" />
				<path
   d="m 23.143,161.59 c 0.199,-0.099 1.684,-0.757 1.348,-0.174 -0.37,0.249 -0.761,0.445 -1.175,0.589 -0.118,0.041 -0.246,-0.021 -0.287,-0.139 -0.037,-0.108 0.014,-0.226 0.114,-0.276 z"
   id="path91"
   style="fill:#007400;fill-opacity:1;stroke:#00ff00;stroke-width:0.245669;stroke-dasharray:none;stroke-opacity:1" />
			</g>
			<g
   id="g101"
   style="fill:#007400;fill-opacity:1;stroke:#00ff00;stroke-width:0.245669;stroke-dasharray:none;stroke-opacity:1">
				<path
   d="m 15.032,156.057 c -0.021,0 -0.041,-0.002 -0.062,-0.006 -0.176,-0.034 -0.292,-0.204 -0.258,-0.38 l 0.928,-4.862 c 0.034,-0.178 0.206,-0.293 0.38,-0.259 0.176,0.034 0.292,0.204 0.258,0.38 l -0.928,4.862 c -0.029,0.157 -0.165,0.265 -0.318,0.265 z"
   id="path92"
   style="fill:#007400;fill-opacity:1;stroke:#00ff00;stroke-width:0.245669;stroke-dasharray:none;stroke-opacity:1" />
				<path
   d="m 16.816,156.449 c -0.021,0 -0.041,-0.002 -0.062,-0.006 -0.176,-0.034 -0.292,-0.204 -0.258,-0.38 l 0.781,-4.09 c 0.034,-0.178 0.208,-0.293 0.38,-0.259 0.176,0.034 0.292,0.204 0.258,0.38 l -0.781,4.09 c -0.029,0.156 -0.165,0.265 -0.318,0.265 z"
   id="path93"
   style="fill:#007400;fill-opacity:1;stroke:#00ff00;stroke-width:0.245669;stroke-dasharray:none;stroke-opacity:1" />
				<path
   d="m 16.031,164.167 c -0.018,0 -0.036,-0.002 -0.054,-0.005 -0.177,-0.029 -0.297,-0.196 -0.268,-0.373 l 1.192,-7.182 -2.019,-0.444 -1.29,7.236 c -0.031,0.178 -0.198,0.291 -0.377,0.264 -0.177,-0.032 -0.294,-0.2 -0.263,-0.377 l 1.349,-7.569 c 0.016,-0.088 0.066,-0.164 0.139,-0.214 0.074,-0.05 0.164,-0.065 0.251,-0.047 l 2.651,0.583 c 0.169,0.037 0.279,0.2 0.251,0.37 l -1.242,7.485 c -0.026,0.16 -0.164,0.273 -0.32,0.273 z"
   id="path94"
   style="fill:#007400;fill-opacity:1;stroke:#00ff00;stroke-width:0.245669;stroke-dasharray:none;stroke-opacity:1" />
				<path
   d="m 16.724,185.559 c -0.216,0 -0.43,-0.054 -0.639,-0.162 -1.368,-0.71 -2.503,-3.859 -3.573,-9.913 -1.393,-7.878 -0.082,-11.957 -0.026,-12.127 0.051,-0.153 0.205,-0.246 0.365,-0.218 l 3.672,0.648 c 0.155,0.027 0.268,0.162 0.268,0.319 0.014,5.895 1.215,9.49 2.606,13.655 l 0.256,0.768 c 1.468,4.421 -0.34,5.959 -2.303,6.881 -0.21,0.099 -0.42,0.149 -0.626,0.149 z m -3.696,-21.728 c -0.259,1.025 -1.041,4.957 0.123,11.54 1.004,5.678 2.092,8.857 3.233,9.449 0.226,0.116 0.445,0.117 0.69,0.003 1.205,-0.566 3.447,-1.619 1.962,-6.088 l -0.255,-0.768 c -1.387,-4.153 -2.587,-7.749 -2.638,-13.587 z"
   id="path95"
   style="fill:#007400;fill-opacity:1;stroke:#00ff00;stroke-width:0.245669;stroke-dasharray:none;stroke-opacity:1" />
				<path
   d="m 14.217,163.906 c -0.499,3.556 -0.48,7.21 0.046,10.769 0.012,0.074 -0.039,0.143 -0.113,0.154 -0.071,0.011 -0.138,-0.037 -0.153,-0.106 -0.704,-3.583 -0.784,-7.28 -0.223,-10.895 0.045,-0.288 0.501,-0.212 0.443,0.078 z"
   id="path96"
   style="fill:#007400;fill-opacity:1;stroke:#00ff00;stroke-width:0.245669;stroke-dasharray:none;stroke-opacity:1" />
				<path
   d="m 16.864,158.097 c -0.22,-0.028 -1.82,-0.305 -1.218,-0.604 0.446,-0.002 0.88,0.052 1.304,0.162 0.121,0.031 0.193,0.154 0.162,0.275 -0.029,0.111 -0.136,0.181 -0.248,0.167 z"
   id="path97"
   style="fill:#007400;fill-opacity:1;stroke:#00ff00;stroke-width:0.245669;stroke-dasharray:none;stroke-opacity:1" />
				<path
   d="m 16.682,159.258 c -0.22,-0.028 -1.821,-0.305 -1.218,-0.604 0.446,-0.002 0.88,0.052 1.304,0.162 0.12,0.031 0.193,0.154 0.162,0.275 -0.029,0.111 -0.137,0.182 -0.248,0.167 z"
   id="path98"
   style="fill:#007400;fill-opacity:1;stroke:#00ff00;stroke-width:0.245669;stroke-dasharray:none;stroke-opacity:1" />
				<path
   d="m 16.5,160.419 c -0.22,-0.028 -1.821,-0.305 -1.218,-0.604 0.445,-0.002 0.88,0.052 1.304,0.162 0.121,0.031 0.193,0.154 0.162,0.275 -0.029,0.111 -0.137,0.182 -0.248,0.167 z"
   id="path99"
   style="fill:#007400;fill-opacity:1;stroke:#00ff00;stroke-width:0.245669;stroke-dasharray:none;stroke-opacity:1" />
				<path
   d="m 16.318,161.58 c -0.22,-0.028 -1.821,-0.305 -1.218,-0.604 0.446,-0.002 0.88,0.052 1.304,0.162 0.121,0.031 0.193,0.154 0.162,0.275 -0.029,0.111 -0.137,0.182 -0.248,0.167 z"
   id="path100"
   style="fill:#007400;fill-opacity:1;stroke:#00ff00;stroke-width:0.245669;stroke-dasharray:none;stroke-opacity:1" />
				<path
   d="m 16.135,162.741 c -0.22,-0.028 -1.821,-0.305 -1.218,-0.604 0.445,-0.002 0.88,0.052 1.304,0.162 0.121,0.031 0.193,0.154 0.162,0.275 -0.029,0.111 -0.136,0.182 -0.248,0.167 z"
   id="path101"
   style="fill:#007400;fill-opacity:1;stroke:#00ff00;stroke-width:0.245669;stroke-dasharray:none;stroke-opacity:1" />
			</g>
		</g></g>
</g></svg>
