<?xml version="1.0" encoding="UTF-8" standalone="no"?>
<!-- Generator: Adobe Illustrator 27.5.0, SVG Export Plug-In . SVG Version: 6.00 Build 0)  -->

<svg
   version="1.1"
   id="Layer_1"
   x="0px"
   y="0px"
   viewBox="0 0 16.59268 62.353622"
   xml:space="preserve"
   width="16.59268"
   height="62.353622"
   xmlns="http://www.w3.org/2000/svg"
   xmlns:svg="http://www.w3.org/2000/svg"><defs
   id="defs425" />

<g
   id="g425"
   transform="translate(-168.35951,-66.590189)">
	
	<g
   id="g424">
		
		
		
		
		
		
		
		
		
		
		
		
		
		
		<g
   id="g309"
   style="fill:#007400;fill-opacity:1;stroke:#00b000;stroke-width:0.623622;stroke-dasharray:none;stroke-opacity:1">
			<g
   id="g304"
   style="fill:#007400;fill-opacity:1;stroke:#00b000;stroke-width:0.623622;stroke-dasharray:none;stroke-opacity:1">
				<path
   d="m 174.796,101.616 c -0.168,0 -0.309,-0.129 -0.324,-0.297 -1.431,-16.38 -1.174,-30.427 -1.171,-30.566 0,-2.12 1.521,-3.851 3.389,-3.851 1.846,0 3.303,1.653 3.39,3.844 0.237,6.057 -0.395,22.881 -1.3,30.551 -0.019,0.162 -0.157,0.285 -0.32,0.287 l -3.66,0.031 c -0.002,0.001 -0.003,0.001 -0.004,0.001 z m 1.894,-34.064 c -1.51,0 -2.738,1.438 -2.738,3.207 -0.003,0.145 -0.257,13.988 1.143,30.204 l 3.072,-0.026 c 0.886,-7.77 1.498,-24.202 1.263,-30.165 -0.073,-1.806 -1.276,-3.22 -2.74,-3.22 z"
   id="path300"
   style="fill:#007400;fill-opacity:1;stroke:#00b000;stroke-width:0.623622;stroke-dasharray:none;stroke-opacity:1" />
				<path
   d="m 176.704,71.638 c -0.858,0 -1.557,-0.686 -1.557,-1.528 0,-0.843 0.698,-1.528 1.557,-1.528 0.859,0 1.557,0.686 1.557,1.528 0,0.843 -0.698,1.528 -1.557,1.528 z m 0,-2.606 c -0.61,0 -1.107,0.483 -1.107,1.078 0,0.595 0.497,1.078 1.107,1.078 0.61,0 1.107,-0.483 1.107,-1.078 0.001,-0.595 -0.496,-1.078 -1.107,-1.078 z"
   id="path301"
   style="fill:#007400;fill-opacity:1;stroke:#00b000;stroke-width:0.623622;stroke-dasharray:none;stroke-opacity:1" />
				<path
   d="m 176.705,94.078 c -1.403,0 -2.422,-0.184 -2.485,-0.196 -0.176,-0.032 -0.293,-0.202 -0.26,-0.378 0.031,-0.177 0.196,-0.297 0.379,-0.26 0.022,0.004 2.27,0.41 4.651,-0.001 0.196,-0.033 0.346,0.089 0.376,0.265 0.03,0.177 -0.088,0.345 -0.265,0.376 -0.849,0.145 -1.673,0.194 -2.396,0.194 z"
   id="path302"
   style="fill:#007400;fill-opacity:1;stroke:#00b000;stroke-width:0.623622;stroke-dasharray:none;stroke-opacity:1" />
				<path
   d="m 176.779,128.632 h -0.245 c -0.059,0 -0.115,-0.016 -0.165,-0.045 -3.76,-2.22 -6.419,-6.651 -7.114,-11.854 -0.528,-3.952 -0.814,-10.969 -0.351,-11.571 0.766,-0.846 2.912,-0.315 4.579,0.274 0.453,0.16 0.791,0.16 1.01,0 0.278,-0.205 0.36,-0.678 0.344,-1.052 -0.031,-0.734 -0.128,-3.097 -0.128,-3.097 l 0.65,-0.025 c 0,0 0.095,2.36 0.127,3.094 0.015,0.337 -0.016,1.166 -0.607,1.603 -0.4,0.298 -0.943,0.326 -1.612,0.091 -1.943,-0.688 -3.496,-0.874 -3.863,-0.472 -0.204,0.513 -0.109,6.545 0.496,11.069 0.664,4.972 3.176,9.201 6.725,11.335 h 0.065 c 3.549,-2.134 6.061,-6.363 6.726,-11.335 0.605,-4.524 0.699,-10.556 0.46,-11.119 -0.332,-0.357 -1.886,-0.165 -3.827,0.521 -0.669,0.234 -1.212,0.206 -1.613,-0.091 -0.592,-0.437 -0.622,-1.266 -0.608,-1.602 0.033,-0.734 0.128,-3.095 0.128,-3.095 l 0.65,0.025 c 0,0 -0.097,2.362 -0.129,3.098 -0.016,0.373 0.066,0.845 0.345,1.051 0.218,0.159 0.557,0.161 1.011,0 1.668,-0.591 3.814,-1.121 4.562,-0.294 0.48,0.622 0.195,7.639 -0.333,11.591 -0.696,5.203 -3.356,9.635 -7.115,11.854 -0.052,0.031 -0.109,0.046 -0.168,0.046 z"
   id="path303"
   style="fill:#007400;fill-opacity:1;stroke:#00b000;stroke-width:0.623622;stroke-dasharray:none;stroke-opacity:1" />
				<path
   d="m 178.246,104.945 c -0.191,4.425 -0.343,8.897 -0.938,13.292 -0.06,0.3 -0.058,0.914 -0.539,0.845 -0.112,-0.037 -0.156,-0.095 -0.192,-0.135 -0.371,-0.598 -0.402,-1.151 -0.543,-1.789 -0.647,-4.102 -0.719,-8.268 -0.829,-12.409 -0.005,-0.169 0.267,-0.185 0.27,-0.007 0.072,2.363 0.174,4.725 0.349,7.08 0.246,2.242 0.246,4.767 1.079,6.851 0.01,0.017 0.023,0.012 -0.018,-0.003 -0.053,-0.02 -0.128,0.026 -0.119,0.028 0.411,-2.145 0.507,-4.51 0.679,-6.689 0.152,-2.357 0.265,-4.719 0.351,-7.08 0.005,-0.287 0.466,-0.281 0.45,0.016 z"
   id="path304"
   style="fill:#007400;fill-opacity:1;stroke:#00b000;stroke-width:0.623622;stroke-dasharray:none;stroke-opacity:1" />
			</g>
			<path
   d="m 179.021,94.965 c -0.671,0.272 -1.393,0.337 -2.095,0.203 -0.074,-0.016 -0.12,-0.089 -0.104,-0.162 0.013,-0.06 0.066,-0.103 0.125,-0.107 0.655,-0.041 1.308,-0.164 1.905,-0.351 0.264,-0.102 0.428,0.308 0.169,0.417 z"
   id="path305"
   style="fill:#007400;fill-opacity:1;stroke:#00b000;stroke-width:0.623622;stroke-dasharray:none;stroke-opacity:1" />
			<path
   d="m 178.957,96.092 c -0.625,0.255 -1.298,0.314 -1.951,0.183 -0.074,-0.017 -0.119,-0.09 -0.102,-0.164 0.014,-0.06 0.065,-0.101 0.123,-0.106 0.611,-0.044 1.217,-0.162 1.772,-0.334 0.26,-0.085 0.41,0.315 0.158,0.421 z"
   id="path306"
   style="fill:#007400;fill-opacity:1;stroke:#00b000;stroke-width:0.623622;stroke-dasharray:none;stroke-opacity:1" />
			<path
   d="m 178.936,97.22 c -0.581,0.239 -1.207,0.291 -1.813,0.164 -0.074,-0.018 -0.119,-0.092 -0.101,-0.165 0.148,-0.208 1.321,-0.2 1.755,-0.419 0.26,-0.085 0.409,0.313 0.159,0.42 z"
   id="path307"
   style="fill:#007400;fill-opacity:1;stroke:#00b000;stroke-width:0.623622;stroke-dasharray:none;stroke-opacity:1" />
			<path
   d="m 178.945,98.269 c -0.507,0.237 -1.065,0.292 -1.6,0.164 -0.073,-0.02 -0.116,-0.096 -0.095,-0.169 0.121,-0.189 1.148,-0.202 1.519,-0.408 0.255,-0.093 0.418,0.295 0.176,0.413 z"
   id="path308"
   style="fill:#007400;fill-opacity:1;stroke:#00b000;stroke-width:0.623622;stroke-dasharray:none;stroke-opacity:1" />
			<path
   d="m 175.472,93.552 c -0.14,-4.712 -0.224,-9.427 -0.251,-14.138 0,-0.074 0.06,-0.135 0.134,-0.136 0.076,-0.001 0.137,0.063 0.136,0.138 0.2,4.708 0.343,9.411 0.43,14.117 0.019,0.292 -0.444,0.317 -0.449,0.019 z"
   id="path309"
   style="fill:#007400;fill-opacity:1;stroke:#00b000;stroke-width:0.623622;stroke-dasharray:none;stroke-opacity:1" />
		</g>
		
		
		
		
		
		
		
		
		
		
		
		
	</g>
</g></svg>
