<?xml version="1.0" encoding="UTF-8" standalone="no"?>
<!-- Generator: Adobe Illustrator 27.5.0, SVG Export Plug-In . SVG Version: 6.00 Build 0)  -->

<svg
   version="1.1"
   id="Layer_1"
   x="0px"
   y="0px"
   viewBox="0 0 51.159935 35.74482"
   xml:space="preserve"
   width="51.159935"
   height="35.74482"
   xmlns="http://www.w3.org/2000/svg"
   xmlns:svg="http://www.w3.org/2000/svg"><defs
   id="defs425" />

<g
   id="g425"
   transform="translate(-103.15718,-13.872645)">
	
	<g
   id="g424">
		
		<g
   id="g33"
   style="fill:#000000;fill-opacity:1;stroke:#00b000;stroke-width:0.566929;stroke-dasharray:none;stroke-opacity:1">
			<path
   d="m 133.818,42.184 c -0.028,0 -0.056,0 -0.084,-0.002 -0.924,-0.049 -1.781,-0.898 -2.698,-2.673 -1.033,-2.267 -0.885,-3.954 0.462,-5.324 2.552,-2.597 13.191,-13.404 13.191,-13.404 l 0.463,0.456 c 0,0 -10.64,10.808 -13.191,13.404 -1.147,1.168 -1.253,2.582 -0.34,4.584 0.77,1.491 1.496,2.272 2.147,2.307 0.016,0.001 0.03,0.001 0.045,0.001 0.836,0 1.656,-1.243 2.38,-2.341 0.141,-0.212 0.279,-0.422 0.417,-0.623 1.471,-2.143 10.376,-15.521 10.466,-15.656 0.1,-0.15 0.304,-0.189 0.45,-0.09 0.149,0.1 0.19,0.301 0.091,0.451 -0.09,0.135 -8.998,13.517 -10.472,15.664 -0.135,0.197 -0.271,0.404 -0.409,0.613 -0.854,1.294 -1.736,2.633 -2.918,2.633 z"
   id="path17"
   style="fill:#000000;fill-opacity:1;stroke:#00b000;stroke-width:0.566929;stroke-dasharray:none;stroke-opacity:1" />
			<path
   d="m 153.099,22.563 c -0.421,0 -0.975,-0.15 -1.656,-0.449 -1.093,-0.48 -2.401,-1.296 -3.683,-2.298 -2.398,-1.873 -4.621,-4.345 -3.838,-5.347 0.783,-1.002 3.721,0.558 6.117,2.431 2.396,1.873 4.62,4.345 3.837,5.348 -0.164,0.21 -0.425,0.315 -0.777,0.315 z m -8.403,-7.774 c -0.133,0 -0.222,0.028 -0.263,0.08 -0.251,0.321 0.837,2.178 3.727,4.435 1.24,0.969 2.499,1.756 3.544,2.215 1.163,0.511 1.598,0.406 1.66,0.328 0.251,-0.321 -0.837,-2.178 -3.726,-4.436 -2.417,-1.889 -4.259,-2.622 -4.942,-2.622 z"
   id="path18"
   style="fill:#000000;fill-opacity:1;stroke:#00b000;stroke-width:0.566929;stroke-dasharray:none;stroke-opacity:1" />
			<path
   d="m 149.607,23.5 c -1.228,0 -2.535,-0.3 -3.644,-1.183 -3.7,-2.95 -2.216,-7.411 -2.201,-7.456 0.06,-0.17 0.241,-0.26 0.413,-0.201 0.17,0.058 0.26,0.243 0.202,0.413 -0.057,0.165 -1.345,4.077 1.99,6.736 2.348,1.869 5.843,0.755 6.784,0.16 0.15,-0.096 0.353,-0.051 0.448,0.101 0.096,0.152 0.051,0.353 -0.101,0.448 -0.63,0.399 -2.182,0.982 -3.891,0.982 z"
   id="path19"
   style="fill:#000000;fill-opacity:1;stroke:#00b000;stroke-width:0.566929;stroke-dasharray:none;stroke-opacity:1" />
			<path
   d="m 123.069,27.164 c -5.355,0 -11.048,-1.069 -11.048,-3.049 0,-1.98 5.692,-3.048 11.048,-3.048 5.356,0 11.049,1.068 11.049,3.048 0,1.98 -5.692,3.049 -11.049,3.049 z m 0,-5.447 c -6.442,0 -10.397,1.396 -10.397,2.398 0,1.001 3.955,2.399 10.397,2.399 6.442,0 10.398,-1.397 10.398,-2.399 10e-4,-1.001 -3.955,-2.398 -10.398,-2.398 z"
   id="path20"
   style="fill:#000000;fill-opacity:1;stroke:#00b000;stroke-width:0.566929;stroke-dasharray:none;stroke-opacity:1" />
			<path
   d="m 123.069,25.936 c -3.695,0 -9.192,-0.482 -9.192,-1.81 0,-1.328 5.497,-1.81 9.192,-1.81 3.695,0 9.193,0.482 9.193,1.81 0,1.328 -5.497,1.81 -9.193,1.81 z m 0,-3.17 c -5.74,0 -8.743,0.885 -8.743,1.36 0,0.475 3.003,1.36 8.743,1.36 5.741,0 8.744,-0.885 8.744,-1.36 0,-0.475 -3.002,-1.36 -8.744,-1.36 z"
   id="path21"
   style="fill:#000000;fill-opacity:1;stroke:#00b000;stroke-width:0.566929;stroke-dasharray:none;stroke-opacity:1" />
			<path
   d="m 123.069,49.334 c -5.645,0 -11.645,-1.068 -11.645,-3.048 l 0.597,-22.179 c 0.005,-0.18 0.138,-0.352 0.334,-0.316 0.18,0.005 0.321,0.154 0.316,0.333 l -0.597,22.17 c 0,0.993 4.183,2.389 10.994,2.389 6.812,0 10.994,-1.396 10.994,-2.398 l -0.042,-4.423 c -0.002,-0.179 0.143,-0.326 0.322,-0.328 10e-4,0 0.002,0 0.003,0 0.178,0 0.323,0.144 0.325,0.322 l 0.042,4.426 c 0.002,1.984 -5.998,3.052 -11.643,3.052 z"
   id="path22"
   style="fill:#000000;fill-opacity:1;stroke:#00b000;stroke-width:0.566929;stroke-dasharray:none;stroke-opacity:1" />
			<path
   d="m 133.963,32.228 c -0.177,0 -0.321,-0.141 -0.325,-0.318 l -0.17,-7.787 c -0.004,-0.18 0.139,-0.328 0.318,-0.332 0.208,-0.019 0.328,0.139 0.332,0.317 l 0.17,7.787 c 0.004,0.18 -0.139,0.328 -0.318,0.332 -0.002,0.001 -0.005,0.001 -0.007,0.001 z"
   id="path23"
   style="fill:#000000;fill-opacity:1;stroke:#00b000;stroke-width:0.566929;stroke-dasharray:none;stroke-opacity:1" />
			<path
   d="m 111.74,41.983 c -0.055,0 -0.109,-0.014 -0.159,-0.042 -6.592,-3.712 -8.5,-9.977 -8.087,-14.601 0.29,-3.26 1.713,-5.717 3.714,-6.414 1.372,-0.478 2.555,-0.44 3.518,0.112 1.533,0.879 1.914,2.734 1.93,2.813 0.034,0.176 -0.08,0.346 -0.256,0.381 -0.184,0.038 -0.348,-0.08 -0.382,-0.255 -0.004,-0.017 -0.344,-1.649 -1.619,-2.378 -0.79,-0.451 -1.791,-0.473 -2.978,-0.059 -1.729,0.602 -3.017,2.901 -3.28,5.857 -0.393,4.422 1.438,10.417 7.759,13.978 0.156,0.088 0.212,0.286 0.124,0.443 -0.06,0.105 -0.17,0.165 -0.284,0.165 z"
   id="path24"
   style="fill:#000000;fill-opacity:1;stroke:#00b000;stroke-width:0.566929;stroke-dasharray:none;stroke-opacity:1" />
			<path
   d="m 111.884,39.744 c -0.06,0 -0.119,-0.016 -0.172,-0.05 -4.786,-2.993 -6.18,-8.172 -5.919,-11.697 0.166,-2.253 1,-3.919 2.231,-4.456 0.775,-0.337 1.632,-0.29 2.41,0.136 1.097,0.599 1.892,1.833 2.127,3.302 0.028,0.177 -0.093,0.344 -0.27,0.372 -0.188,0.03 -0.345,-0.092 -0.373,-0.27 -0.2,-1.252 -0.889,-2.338 -1.796,-2.833 -0.424,-0.232 -1.087,-0.439 -1.839,-0.111 -0.991,0.433 -1.697,1.93 -1.844,3.908 -0.267,3.609 1.366,8.441 5.615,11.099 0.152,0.095 0.199,0.295 0.104,0.448 -0.06,0.098 -0.166,0.152 -0.274,0.152 z"
   id="path25"
   style="fill:#000000;fill-opacity:1;stroke:#00b000;stroke-width:0.566929;stroke-dasharray:none;stroke-opacity:1" />
			<path
   d="m 124.24,28.776 c -0.123,0 -0.224,-0.1 -0.225,-0.223 -0.002,-0.125 0.098,-0.226 0.223,-0.227 8.283,-0.082 9.361,-2.104 9.372,-2.124 0.053,-0.109 0.181,-0.162 0.297,-0.108 0.111,0.051 0.162,0.179 0.114,0.292 -0.041,0.094 -1.095,2.306 -9.779,2.391 -0.001,-0.001 -0.001,-0.001 -0.002,-0.001 z"
   id="path26"
   style="fill:#000000;fill-opacity:1;stroke:#00b000;stroke-width:0.566929;stroke-dasharray:none;stroke-opacity:1" />
			<path
   d="m 127.602,29.947 c -0.122,0 -0.222,-0.098 -0.225,-0.22 -0.003,-0.124 0.096,-0.227 0.22,-0.23 5.347,-0.121 6.063,-1.773 6.07,-1.79 0.045,-0.114 0.173,-0.175 0.289,-0.129 0.115,0.043 0.175,0.168 0.134,0.283 -0.028,0.08 -0.755,1.957 -6.483,2.086 -0.002,0 -0.003,0 -0.005,0 z"
   id="path27"
   style="fill:#000000;fill-opacity:1;stroke:#00b000;stroke-width:0.566929;stroke-dasharray:none;stroke-opacity:1" />
			<path
   d="m 122.687,33.351 c -0.124,0 -0.225,-0.101 -0.225,-0.225 0,-0.124 0.101,-0.225 0.225,-0.225 9.824,0 10.909,-2.22 10.92,-2.243 0.049,-0.112 0.18,-0.168 0.291,-0.121 0.113,0.046 0.171,0.17 0.128,0.285 -0.04,0.103 -1.067,2.529 -11.339,2.529 z"
   id="path28"
   style="fill:#000000;fill-opacity:1;stroke:#00b000;stroke-width:0.566929;stroke-dasharray:none;stroke-opacity:1" />
			<path
   d="m 123.58,45.585 c -8.409,0 -11.585,-2.497 -11.716,-2.604 -0.097,-0.078 -0.111,-0.22 -0.033,-0.316 0.077,-0.098 0.218,-0.112 0.316,-0.034 0.031,0.025 3.207,2.503 11.433,2.503 8.189,0 10.455,-2.208 10.477,-2.229 0.086,-0.089 0.23,-0.091 0.317,-0.004 0.089,0.086 0.092,0.227 0.006,0.317 -0.092,0.097 -2.375,2.367 -10.8,2.367 z"
   id="path29"
   style="fill:#000000;fill-opacity:1;stroke:#00b000;stroke-width:0.566929;stroke-dasharray:none;stroke-opacity:1" />
			<path
   d="m 119.708,29.723 c -5.294,0 -7.407,-1.926 -7.495,-2.008 -0.09,-0.085 -0.095,-0.226 -0.01,-0.317 0.084,-0.091 0.228,-0.095 0.317,-0.011 0.021,0.019 2.092,1.886 7.188,1.886 0.124,0 0.225,0.101 0.225,0.225 0,0.124 -0.101,0.225 -0.225,0.225 z"
   id="path30"
   style="fill:#000000;fill-opacity:1;stroke:#00b000;stroke-width:0.566929;stroke-dasharray:none;stroke-opacity:1" />
			<path
   d="m 115.687,30.856 c -0.007,0 -0.014,0 -0.021,-0.001 -2.078,-0.195 -3.374,-1.103 -3.429,-1.142 -0.101,-0.072 -0.124,-0.212 -0.053,-0.313 0.072,-0.101 0.213,-0.125 0.313,-0.053 0.013,0.009 1.259,0.878 3.211,1.06 0.123,0.012 0.214,0.122 0.202,0.245 -0.011,0.117 -0.108,0.204 -0.223,0.204 z"
   id="path31"
   style="fill:#000000;fill-opacity:1;stroke:#00b000;stroke-width:0.566929;stroke-dasharray:none;stroke-opacity:1" />
			<path
   d="m 146.713,24.202 c -0.018,0 -0.035,-0.002 -0.054,-0.006 -1.921,-0.469 -2.575,-2.11 -2.603,-2.18 -0.045,-0.116 0.013,-0.246 0.128,-0.291 0.119,-0.044 0.246,0.012 0.292,0.128 0.006,0.015 0.602,1.494 2.29,1.905 0.12,0.03 0.194,0.151 0.165,0.272 -0.025,0.103 -0.116,0.172 -0.218,0.172 z"
   id="path32"
   style="fill:#000000;fill-opacity:1;stroke:#00b000;stroke-width:0.566929;stroke-dasharray:none;stroke-opacity:1" />
			<path
   d="m 145.841,25.287 c -0.018,0 -0.035,-0.002 -0.054,-0.006 -1.922,-0.469 -2.575,-2.11 -2.603,-2.18 -0.045,-0.116 0.013,-0.246 0.129,-0.29 0.113,-0.043 0.245,0.012 0.291,0.128 0.006,0.015 0.602,1.494 2.29,1.905 0.12,0.03 0.194,0.151 0.165,0.272 -0.025,0.102 -0.117,0.171 -0.218,0.171 z"
   id="path33"
   style="fill:#000000;fill-opacity:1;stroke:#00b000;stroke-width:0.566929;stroke-dasharray:none;stroke-opacity:1" />
		</g>
		
		
		
		
		
		
		
		
		
		
		
		
		
		
		
		
		
		
		
		
		
		
		
		
		
	</g>
</g></svg>
